<svg width="32" height="32" viewBox="0 0 32 32" fill="none" xmlns="http://www.w3.org/2000/svg">
<path d="M20.8132 7.33303V20.8797C20.8132 21.413 20.6532 21.933 20.3599 22.373L16.7199 27.7864C16.1465 28.653 14.7199 29.2664 13.5065 28.813C12.1999 28.373 11.3332 26.9064 11.6132 25.5997L12.3065 21.2397C12.3599 20.8397 12.2532 20.4797 12.0265 20.1997C11.7999 19.9464 11.4665 19.7864 11.1065 19.7864H5.62652C4.57319 19.7864 3.66652 19.3597 3.13319 18.613C2.62652 17.893 2.53319 16.9597 2.86652 16.013L6.14652 6.02637C6.55986 4.37303 8.35986 3.02637 10.1465 3.02637H15.3465C16.2399 3.02637 17.4932 3.33303 18.0665 3.90637L19.7732 5.22637C20.4265 5.73303 20.8132 6.50637 20.8132 7.33303Z" fill="#808080"/>
<path d="M25.0532 23.4799H26.4265C28.4932 23.4799 29.3332 22.6799 29.3332 20.7065V7.30654C29.3332 5.3332 28.4932 4.5332 26.4265 4.5332H25.0532C22.9865 4.5332 22.1465 5.3332 22.1465 7.30654V20.7199C22.1465 22.6799 22.9865 23.4799 25.0532 23.4799Z" fill="#808080"/>
</svg>
