<svg width="21" height="20" viewBox="0 0 21 20" fill="none" xmlns="http://www.w3.org/2000/svg">
<path opacity="0.4" d="M15.6992 15.7165H15.0659C14.3992 15.7165 13.7659 15.9748 13.2992 16.4414L11.8742 17.8498C11.2242 18.4914 10.1659 18.4914 9.5159 17.8498L8.09088 16.4414C7.62421 15.9748 6.98255 15.7165 6.32422 15.7165H5.69922C4.31589 15.7165 3.19922 14.6081 3.19922 13.2415V4.14978C3.19922 2.78311 4.31589 1.6748 5.69922 1.6748H15.6992C17.0826 1.6748 18.1992 2.78311 18.1992 4.14978V13.2415C18.1992 14.5998 17.0826 15.7165 15.6992 15.7165Z" fill="white"/>
<path d="M10.6995 8.6753C11.7718 8.6753 12.6412 7.80603 12.6412 6.73367C12.6412 5.66132 11.7718 4.79199 10.6995 4.79199C9.62714 4.79199 8.75781 5.66132 8.75781 6.73367C8.75781 7.80603 9.62714 8.6753 10.6995 8.6753Z" fill="white"/>
<path d="M12.9328 12.5507C13.6078 12.5507 13.9995 11.8007 13.6245 11.2423C13.0579 10.4007 11.9579 9.83398 10.6995 9.83398C9.44119 9.83398 8.34118 10.4007 7.77451 11.2423C7.39951 11.8007 7.79119 12.5507 8.46619 12.5507H12.9328Z" fill="white"/>
</svg>
