<svg width="34" height="34" viewBox="0 0 34 34" fill="none" xmlns="http://www.w3.org/2000/svg">
<path d="M7.74935 12.7497C10.4878 12.7497 12.7077 10.5298 12.7077 7.79134C12.7077 5.05293 10.4878 2.83301 7.74935 2.83301C5.01094 2.83301 2.79102 5.05293 2.79102 7.79134C2.79102 10.5298 5.01094 12.7497 7.74935 12.7497Z" stroke="#15B79E" stroke-width="3.5"/>
<path d="M24.0404 21.25H28.2904C29.8487 21.25 31.1237 22.525 31.1237 24.0833V28.3333C31.1237 29.8917 29.8487 31.1667 28.2904 31.1667H24.0404C22.482 31.1667 21.207 29.8917 21.207 28.3333V24.0833C21.207 22.525 22.482 21.25 24.0404 21.25Z" stroke="#15B79E" stroke-width="3.5"/>
<path d="M16.9994 7.08301H20.7961C23.4169 7.08301 24.6352 10.3272 22.6661 12.0555L11.3469 21.958C9.37775 23.6722 10.5961 26.9163 13.2027 26.9163H16.9994" stroke="#15B79E" stroke-width="3.5" stroke-linecap="round" stroke-linejoin="round"/>
<path d="M7.77226 7.79134H7.78863" stroke="#15B79E" stroke-width="3.5" stroke-linecap="round" stroke-linejoin="round"/>
<path d="M26.1883 26.2083H26.2046" stroke="#15B79E" stroke-width="3.5" stroke-linecap="round" stroke-linejoin="round"/>
</svg>
