<svg width="12" height="18" viewBox="0 0 12 18" fill="none" xmlns="http://www.w3.org/2000/svg">
<path fill-rule="evenodd" clip-rule="evenodd" d="M8.56286 8.55263C8.56286 10.0379 7.42286 11.2368 6 11.2368C4.57714 11.2368 3.42857 10.0379 3.42857 8.55263V3.18421C3.42857 1.69895 4.57714 0.5 6 0.5C7.42286 0.5 8.57143 1.69895 8.57143 3.18421L8.56286 8.55263ZM6 13.1158C8.36571 13.1158 10.5429 11.2368 10.5429 8.55263H12C12 11.6126 9.66857 14.1358 6.85714 14.5653V17.5H5.14286V14.5653C2.33143 14.1268 0 11.6037 0 8.55263H1.45714C1.45714 11.2368 3.63429 13.1158 6 13.1158Z" fill="#C7C9CB"/>
</svg>
