<svg width="72" height="72" viewBox="0 0 72 72" fill="none" xmlns="http://www.w3.org/2000/svg">
<rect width="72" height="72" rx="8" fill="#661706"/>
<path d="M35.9998 35.9997C40.6022 35.9997 44.3332 32.2687 44.3332 27.6663C44.3332 23.064 40.6022 19.333 35.9998 19.333C31.3975 19.333 27.6665 23.064 27.6665 27.6663C27.6665 32.2687 31.3975 35.9997 35.9998 35.9997Z" stroke="#FFC57A" stroke-width="2.5" stroke-linecap="round" stroke-linejoin="round"/>
<path d="M21.6831 52.6667C21.6831 46.2167 28.0998 41 35.9998 41C37.5998 41 39.1498 41.2167 40.5998 41.6167" stroke="#FFC57A" stroke-width="2.5" stroke-linecap="round" stroke-linejoin="round"/>
<path d="M52.6668 45.9997C52.6668 46.533 52.6002 47.0497 52.4668 47.5497C52.3168 48.2163 52.0502 48.8663 51.7002 49.433C50.5502 51.3663 48.4335 52.6663 46.0002 52.6663C44.2835 52.6663 42.7335 52.0163 41.5668 50.9496C41.0668 50.5163 40.6335 49.9997 40.3001 49.433C39.6835 48.433 39.3335 47.2497 39.3335 45.9997C39.3335 44.1997 40.0502 42.5497 41.2168 41.3497C42.4335 40.0997 44.1335 39.333 46.0002 39.333C47.9668 39.333 49.7502 40.183 50.9502 41.5497C52.0168 42.733 52.6668 44.2997 52.6668 45.9997Z" stroke="#FFC57A" stroke-width="2.5" stroke-miterlimit="10" stroke-linecap="round" stroke-linejoin="round"/>
<path d="M48.4832 45.9668H43.5166" stroke="#FFC57A" stroke-width="1.5" stroke-miterlimit="10" stroke-linecap="round" stroke-linejoin="round"/>
<path d="M46 43.5332V48.5165" stroke="#FFC57A" stroke-width="1.5" stroke-miterlimit="10" stroke-linecap="round" stroke-linejoin="round"/>
</svg>
