<svg width="10" height="15" viewBox="0 0 10 15" fill="none" xmlns="http://www.w3.org/2000/svg">
<path fill-rule="evenodd" clip-rule="evenodd" d="M0 2C0 0.895416 0.895432 0 2 0H8C9.10457 0 10 0.895416 10 2V13C10 14.1046 9.10457 15 8 15H2C0.895432 15 0 14.1046 0 13V2ZM1.5 3C1.5 2.44772 1.94772 2 2.5 2H7.5C8.05229 2 8.5 2.44772 8.5 3V9C8.5 9.55228 8.05229 10 7.5 10H2.5C1.94772 10 1.5 9.55228 1.5 9V3ZM4.5 11.5C3.67157 11.5 3 11.6716 3 12.5C3 13.3284 3.67157 13.5 4.5 13.5H5.5C6.32843 13.5 7 13.3284 7 12.5C7 11.6716 6.32843 11.5 5.5 11.5H4.5Z" fill="#3BA55D"/>
</svg>
