<svg width="13" height="12" viewBox="0 0 13 12" fill="none" xmlns="http://www.w3.org/2000/svg">
<path d="M5.7785 9.22667L6.149 7.46056C6.227 7.1 6.123 6.72722 5.876 6.44611C5.629 6.165 5.265 6 4.875 6L1.3 6V5.34L2.9705 1.72222L8.229 1.72222C8.346 1.72222 8.45 1.82 8.45 1.93V6.72111L5.7785 9.22667ZM5.2 11.5L9.3665 7.58278C9.6135 7.35056 9.75 7.03889 9.75 6.715L9.75 1.93C9.75 1.14167 9.0675 0.5 8.229 0.5L2.964 0.5C2.5025 0.5 2.08 0.72611 1.846 1.09278L0.1105 4.85111C0.0390005 5.00389 0 5.16889 0 5.34V6C0 6.67222 0.585 7.22222 1.3 7.22222L4.875 7.22222L4.277 10.0639C4.2445 10.1983 4.264 10.345 4.329 10.4672C4.4785 10.7422 4.667 10.9928 4.901 11.2128L5.2 11.5ZM11.7 7.22222H13L13 0.5H11.7C11.3425 0.5 11.05 0.775001 11.05 1.11111L11.05 6.61111C11.05 6.94722 11.3425 7.22222 11.7 7.22222Z" fill="#767676"/>
</svg>
