<svg width="13" height="12" viewBox="0 0 13 12" fill="none" xmlns="http://www.w3.org/2000/svg">
<path d="M7.2215 2.77333L6.851 4.53944C6.773 4.9 6.877 5.27278 7.124 5.55389C7.371 5.835 7.735 6 8.125 6H11.7V6.66L10.0295 10.2778H4.771C4.654 10.2778 4.55 10.18 4.55 10.07V5.27889L7.2215 2.77333ZM7.8 0.5L3.6335 4.41722C3.3865 4.64944 3.25 4.96111 3.25 5.285V10.07C3.25 10.8583 3.9325 11.5 4.771 11.5H10.036C10.4975 11.5 10.92 11.2739 11.154 10.9072L12.8895 7.14889C12.961 6.99611 13 6.83111 13 6.66V6C13 5.32778 12.415 4.77778 11.7 4.77778H8.125L8.723 1.93611C8.7555 1.80167 8.736 1.655 8.671 1.53278C8.5215 1.25778 8.333 1.00722 8.099 0.787222L7.8 0.5ZM1.3 4.77778H0V11.5H1.3C1.6575 11.5 1.95 11.225 1.95 10.8889V5.38889C1.95 5.05278 1.6575 4.77778 1.3 4.77778Z" fill="#767676"/>
</svg>
