<svg width="56" height="56" viewBox="0 0 56 56" fill="none" xmlns="http://www.w3.org/2000/svg">
<path d="M25.668 4.66699H21.0013C9.33464 4.66699 4.66797 9.33366 4.66797 21.0003V35.0003C4.66797 46.667 9.33464 51.3337 21.0013 51.3337H35.0013C46.668 51.3337 51.3346 46.667 51.3346 35.0003V30.3337" stroke="white" stroke-width="1.5" stroke-linecap="round" stroke-linejoin="round"/>
<path d="M37.4283 7.04628L19.0417 25.4329C18.3417 26.1329 17.6417 27.5096 17.5017 28.5129L16.4983 35.5363C16.125 38.0796 17.9217 39.8529 20.465 39.5029L27.4883 38.4996C28.4683 38.3596 29.845 37.6596 30.5683 36.9596L48.955 18.5729C52.1283 15.3996 53.6217 11.7129 48.955 7.04628C44.2883 2.37961 40.6017 3.87295 37.4283 7.04628Z" stroke="white" stroke-width="1.5" stroke-miterlimit="10" stroke-linecap="round" stroke-linejoin="round"/>
<path d="M34.7891 9.68359C36.3524 15.2603 40.7157 19.6236 46.3157 21.2103" stroke="white" stroke-width="1.5" stroke-miterlimit="10" stroke-linecap="round" stroke-linejoin="round"/>
</svg>
