<svg width="26" height="23" viewBox="0 0 26 23" fill="none" xmlns="http://www.w3.org/2000/svg">
<path d="M12.9875 22.2795C12.7019 22.2795 12.4152 22.2283 12.1272 22.1259C11.8392 22.0232 11.5857 21.8625 11.3668 21.6439L9.4515 19.9029C7.0875 17.7473 4.97683 15.6298 3.1195 13.5502C1.26216 11.4706 0.333496 9.24286 0.333496 6.86686C0.333496 4.97464 0.971496 3.39042 2.2475 2.11419C3.52372 0.838195 5.10794 0.200195 7.00016 0.200195C8.07527 0.200195 9.13727 0.448084 10.1862 0.943862C11.2348 1.43964 12.1728 2.24475 13.0002 3.3592C13.8275 2.24475 14.7655 1.43964 15.8142 0.943862C16.8631 0.448084 17.9251 0.200195 19.0002 0.200195C20.8924 0.200195 22.4766 0.838195 23.7528 2.11419C25.0288 3.39042 25.6668 4.97464 25.6668 6.86686C25.6668 9.26864 24.7224 11.5212 22.8335 13.6245C20.9446 15.7279 18.8386 17.8274 16.5155 19.9232L14.6205 21.6439C14.4018 21.8625 14.1464 22.0232 13.8542 22.1259C13.5617 22.2283 13.2728 22.2795 12.9875 22.2795Z" fill="#808080"/>
</svg>
