<svg width="25" height="24" viewBox="0 0 25 24" fill="none" xmlns="http://www.w3.org/2000/svg">
<path d="M8.79102 18.4897V8.32973C8.79102 7.92973 8.91101 7.53973 9.13101 7.20973L11.861 3.14973C12.291 2.49973 13.361 2.03973 14.271 2.37973C15.251 2.70973 15.901 3.80973 15.691 4.78973L15.171 8.05973C15.131 8.35973 15.211 8.62973 15.381 8.83973C15.551 9.02973 15.801 9.14973 16.071 9.14973H20.181C20.971 9.14973 21.651 9.46973 22.051 10.0297C22.431 10.5697 22.501 11.2697 22.251 11.9797L19.791 19.4697C19.481 20.7097 18.131 21.7197 16.791 21.7197H12.891C12.221 21.7197 11.281 21.4897 10.851 21.0597L9.57102 20.0697C9.08102 19.6997 8.79102 19.1097 8.79102 18.4897Z" fill="#03C04A"/>
<path d="M5.61039 6.37988H4.58039C3.03039 6.37988 2.40039 6.97988 2.40039 8.45988V18.5199C2.40039 19.9999 3.03039 20.5999 4.58039 20.5999H5.61039C7.16039 20.5999 7.79039 19.9999 7.79039 18.5199V8.45988C7.79039 6.97988 7.16039 6.37988 5.61039 6.37988Z" fill="#03C04A"/>
</svg>
