<svg width="21" height="20" viewBox="0 0 21 20" fill="none" xmlns="http://www.w3.org/2000/svg">
<path opacity="0.4" d="M11.3406 4.90039H4.85728C3.43228 4.90039 2.26562 6.06705 2.26562 7.49205V16.9587C2.26562 18.1671 3.13229 18.6837 4.19062 18.092L7.46562 16.267C7.81562 16.0754 8.38229 16.0754 8.72396 16.267L11.999 18.092C13.0573 18.6837 13.924 18.1671 13.924 16.9587V7.49205C13.9323 6.06705 12.7656 4.90039 11.3406 4.90039Z" fill="white"/>
<path d="M18.9323 4.25865V13.7253C18.9323 14.9337 18.0656 15.442 17.0073 14.8586L13.9323 13.142V7.49198C13.9323 6.06698 12.7656 4.90033 11.3406 4.90033H7.26562V4.25865C7.26562 2.83365 8.43228 1.66699 9.85728 1.66699H16.3406C17.7656 1.66699 18.9323 2.83365 18.9323 4.25865Z" fill="white"/>
</svg>
