<svg width="32" height="32" viewBox="0 0 32 32" fill="none" xmlns="http://www.w3.org/2000/svg">
<path d="M11.1875 24.653V11.1063C11.1875 10.573 11.3475 10.053 11.6408 9.61298L15.2808 4.19964C15.8542 3.33297 17.2808 2.71964 18.4942 3.17297C19.8008 3.61297 20.6675 5.07964 20.3875 6.38631L19.6942 10.7463C19.6408 11.1463 19.7475 11.5063 19.9742 11.7863C20.2008 12.0396 20.5342 12.1996 20.8942 12.1996H26.3742C27.4275 12.1996 28.3342 12.6263 28.8675 13.373C29.3742 14.093 29.4675 15.0263 29.1342 15.973L25.8542 25.9596C25.4408 27.613 23.6408 28.9596 21.8542 28.9596H16.6542C15.7608 28.9596 14.5075 28.653 13.9342 28.0796L12.2275 26.7596C11.5742 26.2663 11.1875 25.4796 11.1875 24.653Z" fill="#808080"/>
<path d="M6.94602 8.50684H5.57268C3.50602 8.50684 2.66602 9.30684 2.66602 11.2802V24.6935C2.66602 26.6668 3.50602 27.4668 5.57268 27.4668H6.94602C9.01268 27.4668 9.85268 26.6668 9.85268 24.6935V11.2802C9.85268 9.30684 9.01268 8.50684 6.94602 8.50684Z" fill="#808080"/>
</svg>
