<svg width="32" height="32" viewBox="0 0 32 32" fill="none" xmlns="http://www.w3.org/2000/svg">
<path d="M21.5865 2.66699H10.4132C5.55984 2.66699 2.6665 5.56033 2.6665 10.4137V21.5737C2.6665 26.4403 5.55984 29.3337 10.4132 29.3337H21.5732C26.4265 29.3337 29.3198 26.4403 29.3198 21.587V10.4137C29.3332 5.56033 26.4398 2.66699 21.5865 2.66699ZM22.6665 23.0003H9.33317C8.7865 23.0003 8.33317 22.547 8.33317 22.0003C8.33317 21.4537 8.7865 21.0003 9.33317 21.0003H22.6665C23.2132 21.0003 23.6665 21.4537 23.6665 22.0003C23.6665 22.547 23.2132 23.0003 22.6665 23.0003ZM22.6665 17.0003H9.33317C8.7865 17.0003 8.33317 16.547 8.33317 16.0003C8.33317 15.4537 8.7865 15.0003 9.33317 15.0003H22.6665C23.2132 15.0003 23.6665 15.4537 23.6665 16.0003C23.6665 16.547 23.2132 17.0003 22.6665 17.0003ZM22.6665 11.0003H9.33317C8.7865 11.0003 8.33317 10.547 8.33317 10.0003C8.33317 9.45366 8.7865 9.00033 9.33317 9.00033H22.6665C23.2132 9.00033 23.6665 9.45366 23.6665 10.0003C23.6665 10.547 23.2132 11.0003 22.6665 11.0003Z" fill="#686868"/>
</svg>
