<svg width="72" height="72" viewBox="0 0 72 72" fill="none" xmlns="http://www.w3.org/2000/svg">
<rect width="72" height="72" rx="8" fill="#6F1877"/>
<path d="M33.4831 19.7166L25.1664 22.8499C23.2498 23.5666 21.6831 25.8333 21.6831 27.8666V40.2499C21.6831 42.2166 22.9831 44.7999 24.5664 45.9833L31.7331 51.3333C34.0831 53.0999 37.9498 53.0999 40.2998 51.3333L47.4664 45.9833C49.0498 44.7999 50.3498 42.2166 50.3498 40.2499V27.8666C50.3498 25.8166 48.7831 23.5499 46.8664 22.8333L38.5498 19.7166C37.1331 19.1999 34.8664 19.1999 33.4831 19.7166Z" stroke="#EEAAFD" stroke-width="2.5" stroke-linecap="round" stroke-linejoin="round"/>
<path d="M35.9998 36.8337C37.8408 36.8337 39.3332 35.3413 39.3332 33.5003C39.3332 31.6594 37.8408 30.167 35.9998 30.167C34.1589 30.167 32.6665 31.6594 32.6665 33.5003C32.6665 35.3413 34.1589 36.8337 35.9998 36.8337Z" stroke="#EEAAFD" stroke-width="2.5" stroke-miterlimit="10" stroke-linecap="round" stroke-linejoin="round"/>
<path d="M36 36.833V41.833" stroke="#EEAAFD" stroke-width="2.5" stroke-miterlimit="10" stroke-linecap="round" stroke-linejoin="round"/>
</svg>
